# xmcd
#
# Track frame offsets:
#	150
#	23007
#	44427
#	66668
#	84440
#	108218
#	130722
#	148715
#	168467
#	194217
#	230613
#	246587
#	273197
#	290001
#
# Disc length: 4162 seconds
# Revision: 0
# Processed by: cddbd v1.5.2PL0 Copyright (c) Steve Scherf et al.
# Submitted via: dBpowerAMP V12.0
#
DISCID=d710400e
DTITLE=Bluesville Station - Step On The Gas
DYEAR=2012
DGENRE=Blues
TTITLE0=Right At Home
TTITLE1=Key To My Heart
TTITLE2=Live It Up
TTITLE3=Big Bottom Baby
TTITLE4=No Time Blues
TTITLE5=Memories Of Las Flores
TTITLE6=Shoe Shine Blues
TTITLE7=So Sue Me
TTITLE8=Rough Rider Woman
TTITLE9=Lost in Middle Earth
TTITLE10=Spur Of The Moment
TTITLE11=Moanin' Woman Blues
TTITLE12=Step On the Gas
TTITLE13=Brad's Boogie
EXTD=
EXTT0=
EXTT1=
EXTT2=
EXTT3=
EXTT4=
EXTT5=
EXTT6=
EXTT7=
EXTT8=
EXTT9=
EXTT10=
EXTT11=
EXTT12=
EXTT13=
PLAYORDER=
